<svg width="134" height="24" viewBox="0 0 134 24" fill="none" xmlns="http://www.w3.org/2000/svg">
<rect width="32" height="24" fill="white"/>
<path d="M20.04 11.5H10.9326L20.9326 23.5H0.5V0.84082L20.04 11.5Z" fill="#C51918" stroke="#4857A1"/>
<mask id="mask0_15395_345789" style="mask-type:luminance" maskUnits="userSpaceOnUse" x="0" y="0" width="22" height="24">
<path d="M20.04 11.5H10.9326L20.9326 23.5H0.5V0.84082L20.04 11.5Z" fill="white" stroke="white"/>
</mask>
<g mask="url(#mask0_15395_345789)">
<path fill-rule="evenodd" clip-rule="evenodd" d="M5.82963 20.0102L4.60446 21.6003L4.54791 19.5938L2.6221 20.16L3.75576 18.5035L1.86491 17.8296L3.75576 17.1558L2.6221 15.4992L4.54791 16.0655L4.60446 14.059L5.82963 15.649L7.0548 14.059L7.11135 16.0655L9.03716 15.4992L7.9035 17.1558L9.79435 17.8296L7.9035 18.5035L9.03716 20.16L7.11135 19.5938L7.0548 21.6003L5.82963 20.0102Z" fill="#F7FCFF"/>
<path fill-rule="evenodd" clip-rule="evenodd" d="M5.80005 8.1388L5.16021 8.96921L5.13068 7.92131L4.12494 8.21704L4.71698 7.35191L3.7295 7L4.71698 6.64809L4.12494 5.78296L5.13068 6.07869L5.16021 5.03079L5.80005 5.8612L6.43988 5.03079L6.46942 6.07869L7.47516 5.78296L6.88312 6.64809L7.8706 7L6.88312 7.35191L7.47516 8.21704L6.46942 7.92131L6.43988 8.96921L5.80005 8.1388Z" fill="#F7FCFF"/>
<path fill-rule="evenodd" clip-rule="evenodd" d="M5.66606 7.8941C7.89237 7.90299 9.07938 6.64 9.07938 6.64C9.3142 8.08116 7.50118 9.04 5.68776 9.04C3.87433 9.04 2.77639 7.73298 2.09998 6.64C2.09998 6.64 3.43974 7.8852 5.66606 7.8941Z" fill="#F9FAFA"/>
</g>
<mask id="mask1_15395_345789" style="mask-type:luminance" maskUnits="userSpaceOnUse" x="34" y="0" width="32" height="24">
<rect x="34" width="32" height="24" fill="white"/>
</mask>
<g mask="url(#mask1_15395_345789)">
<path fill-rule="evenodd" clip-rule="evenodd" d="M34 0V24H66V0H34Z" fill="#F7FCFF"/>
<mask id="mask2_15395_345789" style="mask-type:luminance" maskUnits="userSpaceOnUse" x="34" y="0" width="32" height="24">
<path fill-rule="evenodd" clip-rule="evenodd" d="M34 0V24H66V0H34Z" fill="white"/>
</mask>
<g mask="url(#mask2_15395_345789)">
<path fill-rule="evenodd" clip-rule="evenodd" d="M34 0V8H66V0H34Z" fill="#BF2714"/>
<path fill-rule="evenodd" clip-rule="evenodd" d="M34 16V24H66V16H34Z" fill="#272727"/>
<path d="M47.3691 9.52051L44.334 12.2002H47.4707C47.4707 12.2002 47.6495 11.2755 48.4434 11.2754C49.2374 11.2754 49.4238 12.2002 49.4238 12.2002V14.126H40.5068C40.0895 15.0001 39 15 39 15C39 15 40.2461 14.1167 39.3369 12.8115L40.0898 12.2354C40.0906 12.2491 40.1258 12.8115 40.625 12.8115C41.1293 12.8116 41.9263 13.0274 41.9297 13.0283V12.2354L42.583 11.9434V13.0283H48.6123V12.2354C48.6123 12.2354 48.6669 12.0205 48.4434 12.0205C48.22 12.0206 48.1934 12.2354 48.1934 12.2354V12.6064H43.4082V11.9756L46.7783 9L47.3691 9.52051ZM41.4922 14.4658C41.6484 14.466 41.7754 14.5778 41.7754 14.7158C41.7753 14.8537 41.6484 14.9656 41.4922 14.9658C41.3358 14.9658 41.2091 14.8538 41.209 14.7158C41.209 14.5777 41.3357 14.4658 41.4922 14.4658ZM50.8105 9.47754V12.8857H51.4463L51.9355 14.1035H49.9893V9.21484L50.8105 9.47754ZM59.875 9.47754V12.8857H60.5107L61 14.1035H59.0537V9.21484L59.875 9.47754ZM58.0967 14.0625H53.7656C53.7658 12.304 55.0098 12.2178 55.0098 12.2178V11.8154L55.6562 11.3994V12.8818H56.2275V10.7471L57.0781 10.2559V12.8818H57.5947V9.6084L58.1016 9.26465L58.0967 14.0625ZM56.9199 9.42285C56.7242 9.80406 55.9141 9.6416 55.9141 9.6416C55.749 9.85881 55.3327 9.75055 55.1348 9.68262L56.9199 9.42285Z" fill="#009C4E"/>
</g>
</g>
<mask id="mask3_15395_345789" style="mask-type:luminance" maskUnits="userSpaceOnUse" x="68" y="0" width="32" height="24">
<rect x="68" width="32" height="24" fill="white"/>
</mask>
<g mask="url(#mask3_15395_345789)">
<path fill-rule="evenodd" clip-rule="evenodd" d="M68 0V24H100V0H68Z" fill="#009933"/>
<mask id="mask4_15395_345789" style="mask-type:luminance" maskUnits="userSpaceOnUse" x="68" y="0" width="32" height="24">
<path fill-rule="evenodd" clip-rule="evenodd" d="M68 0V24H100V0H68Z" fill="white"/>
</mask>
<g mask="url(#mask4_15395_345789)">
<g filter="url(#filter0_d_15395_345789)">
<path fill-rule="evenodd" clip-rule="evenodd" d="M83.9268 3.70404L96.1286 12.2075L83.7608 20.1713L71.8089 12.0427L83.9268 3.70404Z" fill="#FFD221"/>
<path fill-rule="evenodd" clip-rule="evenodd" d="M83.9268 3.70404L96.1286 12.2075L83.7608 20.1713L71.8089 12.0427L83.9268 3.70404Z" fill="url(#paint0_linear_15395_345789)"/>
</g>
<path fill-rule="evenodd" clip-rule="evenodd" d="M84 17.2C86.7614 17.2 89 14.9614 89 12.2C89 9.43859 86.7614 7.20001 84 7.20001C81.2386 7.20001 79 9.43859 79 12.2C79 14.9614 81.2386 17.2 84 17.2Z" fill="#2E42A5"/>
<mask id="mask5_15395_345789" style="mask-type:luminance" maskUnits="userSpaceOnUse" x="79" y="7" width="10" height="11">
<path fill-rule="evenodd" clip-rule="evenodd" d="M84 17.2C86.7614 17.2 89 14.9614 89 12.2C89 9.43859 86.7614 7.20001 84 7.20001C81.2386 7.20001 79 9.43859 79 12.2C79 14.9614 81.2386 17.2 84 17.2Z" fill="white"/>
</mask>
<g mask="url(#mask5_15395_345789)">
<path fill-rule="evenodd" clip-rule="evenodd" d="M82.38 14.57L82.1566 14.6874L82.1993 14.4387L82.0186 14.2626L82.2683 14.2263L82.38 14L82.4917 14.2263L82.7414 14.2626L82.5607 14.4387L82.6034 14.6874L82.38 14.57Z" fill="#F7FCFF"/>
<path fill-rule="evenodd" clip-rule="evenodd" d="M84.38 14.57L84.1566 14.6874L84.1993 14.4387L84.0186 14.2626L84.2683 14.2263L84.38 14L84.4917 14.2263L84.7414 14.2626L84.5607 14.4387L84.6034 14.6874L84.38 14.57Z" fill="#F7FCFF"/>
<path fill-rule="evenodd" clip-rule="evenodd" d="M84.38 15.77L84.1566 15.8874L84.1993 15.6387L84.0186 15.4626L84.2683 15.4263L84.38 15.2L84.4917 15.4263L84.7414 15.4626L84.5607 15.6387L84.6034 15.8874L84.38 15.77Z" fill="#F7FCFF"/>
<path fill-rule="evenodd" clip-rule="evenodd" d="M83.38 11.57L83.1566 11.6874L83.1993 11.4387L83.0186 11.2626L83.2683 11.2263L83.38 11L83.4917 11.2263L83.7414 11.2626L83.5607 11.4387L83.6034 11.6874L83.38 11.57Z" fill="#F7FCFF"/>
<path fill-rule="evenodd" clip-rule="evenodd" d="M83.38 13.57L83.1566 13.6874L83.1993 13.4387L83.0186 13.2626L83.2683 13.2263L83.38 13L83.4917 13.2263L83.7414 13.2626L83.5607 13.4387L83.6034 13.6874L83.38 13.57Z" fill="#F7FCFF"/>
<path fill-rule="evenodd" clip-rule="evenodd" d="M81.98 12.57L81.7566 12.6874L81.7993 12.4387L81.6186 12.2626L81.8683 12.2263L81.98 12L82.0917 12.2263L82.3414 12.2626L82.1607 12.4387L82.2033 12.6874L81.98 12.57Z" fill="#F7FCFF"/>
<path fill-rule="evenodd" clip-rule="evenodd" d="M80.58 13.37L80.3566 13.4874L80.3993 13.2387L80.2185 13.0626L80.4683 13.0263L80.58 12.8L80.6916 13.0263L80.9414 13.0626L80.7607 13.2387L80.8033 13.4874L80.58 13.37Z" fill="#F7FCFF"/>
<path fill-rule="evenodd" clip-rule="evenodd" d="M85.18 9.96999L84.9567 10.0874L84.9993 9.83871L84.8186 9.66257L85.0684 9.62628L85.18 9.39999L85.2917 9.62628L85.5415 9.66257L85.3607 9.83871L85.4034 10.0874L85.18 9.96999Z" fill="#F7FCFF"/>
<path d="M77.9248 10.9972L78.0752 9.00283C82.8731 9.36462 86.66 10.9422 89.3882 13.7484L87.9542 15.1425C85.5896 12.7103 82.2624 11.3242 77.9248 10.9972Z" fill="#F7FCFF"/>
<path d="M80.2894 10.6028L80.3409 10.1054C83.4339 10.4258 86.0868 11.6105 88.2917 13.6569L87.9516 14.0234C85.8269 12.0514 83.2755 10.9121 80.2894 10.6028Z" fill="#009933"/>
</g>
</g>
</g>
<mask id="mask6_15395_345789" style="mask-type:luminance" maskUnits="userSpaceOnUse" x="102" y="0" width="32" height="24">
<rect x="102" width="32" height="24" fill="white"/>
</mask>
<g mask="url(#mask6_15395_345789)">
<path fill-rule="evenodd" clip-rule="evenodd" d="M102 0H134V24H102V0Z" fill="#F7FCFF"/>
<path fill-rule="evenodd" clip-rule="evenodd" d="M102 14.6667V16.6667H134V14.6667H102Z" fill="#E31D1C"/>
<path fill-rule="evenodd" clip-rule="evenodd" d="M102 18.3333V20.3333H134V18.3333H102Z" fill="#E31D1C"/>
<path fill-rule="evenodd" clip-rule="evenodd" d="M102 7.33333V9.33333H134V7.33333H102Z" fill="#E31D1C"/>
<path fill-rule="evenodd" clip-rule="evenodd" d="M102 22V24H134V22H102Z" fill="#E31D1C"/>
<path fill-rule="evenodd" clip-rule="evenodd" d="M102 11V13H134V11H102Z" fill="#E31D1C"/>
<path fill-rule="evenodd" clip-rule="evenodd" d="M102 0V2H134V0H102Z" fill="#E31D1C"/>
<path fill-rule="evenodd" clip-rule="evenodd" d="M102 3.66667V5.66667H134V3.66667H102Z" fill="#E31D1C"/>
<rect x="102" width="20" height="13" fill="#2E42A5"/>
<path d="M104.053 9.96823H104.77L104.206 10.5415L104.425 11.4477L103.722 10.9389L102.996 11.4477L103.241 10.5415L102.596 9.96823H103.438L103.721 9.22897L104.053 9.96823ZM108.053 9.96823H108.77L108.206 10.5415L108.425 11.4477L107.722 10.9389L106.996 11.4477L107.241 10.5415L106.596 9.96823H107.438L107.721 9.22897L108.053 9.96823ZM112.053 9.96823H112.77L112.206 10.5415L112.425 11.4477L111.722 10.9389L110.996 11.4477L111.241 10.5415L110.596 9.96823H111.438L111.721 9.22897L112.053 9.96823ZM116.053 9.96823H116.77L116.206 10.5415L116.425 11.4477L115.722 10.9389L114.996 11.4477L115.241 10.5415L114.596 9.96823H115.438L115.721 9.22897L116.053 9.96823ZM120.053 9.96823H120.77L120.206 10.5415L120.425 11.4477L119.722 10.9389L118.996 11.4477L119.241 10.5415L118.596 9.96823H119.438L119.721 9.22897L120.053 9.96823ZM106.053 7.96823H106.77L106.206 8.54147L106.425 9.44772L105.722 8.93893L104.996 9.44772L105.241 8.54147L104.596 7.96823H105.438L105.721 7.22897L106.053 7.96823ZM110.053 7.96823H110.77L110.206 8.54147L110.425 9.44772L109.722 8.93893L108.996 9.44772L109.241 8.54147L108.596 7.96823H109.438L109.721 7.22897L110.053 7.96823ZM114.053 7.96823H114.77L114.206 8.54147L114.425 9.44772L113.722 8.93893L112.996 9.44772L113.241 8.54147L112.596 7.96823H113.438L113.721 7.22897L114.053 7.96823ZM118.053 7.96823H118.77L118.206 8.54147L118.425 9.44772L117.722 8.93893L116.996 9.44772L117.241 8.54147L116.596 7.96823H117.438L117.721 7.22897L118.053 7.96823ZM104.053 5.96823H104.77L104.206 6.54147L104.425 7.44772L103.722 6.93893L102.996 7.44772L103.241 6.54147L102.596 5.96823H103.438L103.721 5.22897L104.053 5.96823ZM108.053 5.96823H108.77L108.206 6.54147L108.425 7.44772L107.722 6.93893L106.996 7.44772L107.241 6.54147L106.596 5.96823H107.438L107.721 5.22897L108.053 5.96823ZM112.053 5.96823H112.77L112.206 6.54147L112.425 7.44772L111.722 6.93893L110.996 7.44772L111.241 6.54147L110.596 5.96823H111.438L111.721 5.22897L112.053 5.96823ZM116.053 5.96823H116.77L116.206 6.54147L116.425 7.44772L115.722 6.93893L114.996 7.44772L115.241 6.54147L114.596 5.96823H115.438L115.721 5.22897L116.053 5.96823ZM120.053 5.96823H120.77L120.206 6.54147L120.425 7.44772L119.722 6.93893L118.996 7.44772L119.241 6.54147L118.596 5.96823H119.438L119.721 5.22897L120.053 5.96823ZM106.053 3.96823H106.77L106.206 4.54147L106.425 5.44772L105.722 4.93893L104.996 5.44772L105.241 4.54147L104.596 3.96823H105.438L105.721 3.22897L106.053 3.96823ZM110.053 3.96823H110.77L110.206 4.54147L110.425 5.44772L109.722 4.93893L108.996 5.44772L109.241 4.54147L108.596 3.96823H109.438L109.721 3.22897L110.053 3.96823ZM114.053 3.96823H114.77L114.206 4.54147L114.425 5.44772L113.722 4.93893L112.996 5.44772L113.241 4.54147L112.596 3.96823H113.438L113.721 3.22897L114.053 3.96823ZM118.053 3.96823H118.77L118.206 4.54147L118.425 5.44772L117.722 4.93893L116.996 5.44772L117.241 4.54147L116.596 3.96823H117.438L117.721 3.22897L118.053 3.96823ZM104.053 1.96823H104.77L104.206 2.54147L104.425 3.44772L103.722 2.93893L102.996 3.44772L103.241 2.54147L102.596 1.96823H103.438L103.721 1.22897L104.053 1.96823ZM108.053 1.96823H108.77L108.206 2.54147L108.425 3.44772L107.722 2.93893L106.996 3.44772L107.241 2.54147L106.596 1.96823H107.438L107.721 1.22897L108.053 1.96823ZM112.053 1.96823H112.77L112.206 2.54147L112.425 3.44772L111.722 2.93893L110.996 3.44772L111.241 2.54147L110.596 1.96823H111.438L111.721 1.22897L112.053 1.96823ZM116.053 1.96823H116.77L116.206 2.54147L116.425 3.44772L115.722 2.93893L114.996 3.44772L115.241 2.54147L114.596 1.96823H115.438L115.721 1.22897L116.053 1.96823ZM120.053 1.96823H120.77L120.206 2.54147L120.425 3.44772L119.722 2.93893L118.996 3.44772L119.241 2.54147L118.596 1.96823H119.438L119.721 1.22897L120.053 1.96823Z" fill="#F7FCFF"/>
</g>
<defs>
<filter id="filter0_d_15395_345789" x="71.8089" y="3.70404" width="24.3198" height="16.4672" filterUnits="userSpaceOnUse" color-interpolation-filters="sRGB">
<feFlood flood-opacity="0" result="BackgroundImageFix"/>
<feColorMatrix in="SourceAlpha" type="matrix" values="0 0 0 0 0 0 0 0 0 0 0 0 0 0 0 0 0 0 127 0" result="hardAlpha"/>
<feOffset/>
<feColorMatrix type="matrix" values="0 0 0 0 0.0313726 0 0 0 0 0.368627 0 0 0 0 0 0 0 0 0.28 0"/>
<feBlend mode="normal" in2="BackgroundImageFix" result="effect1_dropShadow_15395_345789"/>
<feBlend mode="normal" in="SourceGraphic" in2="effect1_dropShadow_15395_345789" result="shape"/>
</filter>
<linearGradient id="paint0_linear_15395_345789" x1="100" y1="24" x2="100" y2="0" gradientUnits="userSpaceOnUse">
<stop stop-color="#FFC600"/>
<stop offset="1" stop-color="#FFDE42"/>
</linearGradient>
</defs>
</svg>
